<svg xmlns="http://www.w3.org/2000/svg" viewBox="0 0 151.08 158.18"><defs><style>.cls-1{fill:#f4ec45;}.cls-2{fill:#bac645;}.cls-3{fill:#fff;}.cls-4{fill:#78797b;}</style></defs><g id="Layer_2" data-name="Layer 2"><g id="Layer_1-2" data-name="Layer 1"><rect class="cls-1" width="151.08" height="158.18" rx="10.11"/><path class="cls-2" d="M55.41,23.13h58.44A9.13,9.13,0,0,1,123,32.27V132.35a9.13,9.13,0,0,1-9.13,9.13H59.24a13,13,0,0,1-13-13V32.27A9.13,9.13,0,0,1,55.41,23.13Z"/><path class="cls-3" d="M41,23.13h64.72a9.13,9.13,0,0,1,9.13,9.13V132.35a9.13,9.13,0,0,1-9.13,9.13H44.79a13,13,0,0,1-13-13V32.27A9.13,9.13,0,0,1,41,23.13Z"/><rect class="cls-4" x="45.04" y="56.93" width="48.77" height="4.72" rx="2.36" transform="translate(138.84 118.58) rotate(-180)"/><rect class="cls-4" x="45.04" y="72.76" width="48.77" height="4.72" rx="2.36" transform="translate(138.84 150.24) rotate(180)"/><rect class="cls-4" x="45.04" y="89.74" width="32.83" height="4.72" rx="2.36" transform="translate(122.9 184.2) rotate(180)"/></g></g></svg>